<svg id="logomark" xmlns="http://www.w3.org/2000/svg" viewBox="0 0 769.15 802.25"><defs><style>.cls-1{fill:#1d1d26;}.cls-2{fill:#dd1444;}</style></defs><title>logomark</title><path class="cls-1" d="M896.41,203.7l-161-92.95L276.3,375.9l0,186,161,92.95L896.43,389.64Zm-35.92,6.91L437.33,455,312.21,382.81,735.37,138.4ZM300.24,403.55l125.12,72.22,0,144.47L300.27,548ZM449.32,620.24l0-144.48L872.46,231.35l0,144.47Z" transform="translate(-127.28 -110.75)"/><path class="cls-2" d="M747.4,448.07l-310,179.08-149.06-86-161,93,0,185.94,161,93L747.42,647.84ZM413.41,641,288.32,713.23,163.2,641l125.09-72.25ZM151.23,661.75,276.34,734l0,144.47-125.1-72.22ZM300.31,878.43l0-144.47L437.35,654.8h0l286.1-165.25,0,144.47Z" transform="translate(-127.28 -110.75)"/></svg>